<svg t="1743615740713" class="icon" viewBox="0 0 1024 1024" version="1.1" xmlns="http://www.w3.org/2000/svg" p-id="1607"
  width="144" height="144">
  <path
    d="M956.6208 922.8288h-29.44V592.896c0-17.7152-8.8576-41.5744-30.0032-50.432L629.8624 367.616V93.7472l-2.8672-6.144c-12.1344-29.7984-38.656-44.8-71.3728-38.8096L136.3968 173.568a64.4096 64.4096 0 0 0-41.5744 59.4432v689.8176h-29.952a29.9008 29.9008 0 0 0-30.0032 30.0032c0 18.2272 12.0832 30.0032 30.0032 30.0032h891.7504c18.2272 0 30.0032-12.1344 30.0032-30.0032-0.2048-18.2272-12.288-30.0032-30.0032-30.0032z m-89.2416-333.2608v333.312h-237.5168V435.6096l237.568 153.9072zM153.6 233.0112l416-124.8256v814.6432H153.5488V233.0112z"
    fill-opacity=".8" p-id="1608"></path>
  <path
    d="M450.8672 325.12H272.7424c-18.2272 0-30.0032 11.776-30.0032 30.0032s12.1344 30.0032 30.0032 30.0032h178.1248c18.2272 0 29.952-11.776 29.952-30.0032 0-18.432-12.288-30.0032-29.952-30.0032z m0 177.92H272.7424c-18.2272 0-30.0032 12.1344-30.0032 30.0032v0.3584c0 18.2272 12.1344 30.0032 30.0032 30.0032h178.1248c18.2272 0 29.952-12.1344 29.952-30.0032v-0.3584c0-18.2272-12.288-30.0032-29.952-30.0032z m0 178.688H272.7424c-18.2272 0-30.0032 11.7248-30.0032 29.952v0.3584c0 18.2784 12.1344 30.0032 30.0032 30.0032h178.1248c18.2272 0 29.952-11.776 29.952-30.0032V711.68c0-18.2272-12.288-29.952-29.952-29.952z m237.8752 30.3104c0 18.2784 12.0832 30.0032 30.0032 30.0032h59.392c18.2784 0 30.0032-11.776 30.0032-30.0032V711.68c0-18.2272-12.0832-29.952-30.0032-29.952h-59.392c-18.2784 0-30.0032 11.7248-30.0032 29.952v0.3584z"
    fill="currentColor" fill-opacity=".8" p-id="1609"></path>
</svg>
