<svg t="1743439333942" class="icon" viewBox="0 0 1024 1024" version="1.1" xmlns="http://www.w3.org/2000/svg" p-id="2943"
  width="144" height="144">
  <path
    d="M838.656 958.464H185.344c-37.888 0-68.608-30.72-68.608-68.608V426.496c0-19.456 8.192-38.4 23.04-51.2l327.168-292.352c26.112-23.552 65.536-23.552 91.648 0l325.632 292.352c14.336 12.8 23.04 31.744 23.04 51.2v463.36c0 37.888-30.72 68.608-68.608 68.608zM512.512 141.312l-320.512 286.72v454.144h640V428.032l-319.488-286.72z m-23.04-32.768z"
    p-id="2944"></path>
  <path
    d="M512 826.88c-22.528 0-40.96-18.432-40.96-40.96v-180.224c0-22.528 18.432-40.96 40.96-40.96s40.96 18.432 40.96 40.96v180.224c0 22.528-18.432 40.96-40.96 40.96z"
    fill="currentColor"></path>
</svg>
