<svg t="1743440056778" class="icon" viewBox="0 0 1214 1024" version="1.1" xmlns="http://www.w3.org/2000/svg" p-id="3101"
  width="144" height="144">
  <path
    d="M1213.664616 614.58963V606.814815A606.814815 606.814815 0 0 0 0.034987 606.814815v9.481481a27.022222 27.022222 0 0 0 0 2.74963 605.961481 605.961481 0 0 0 151.703703 388.740741 13.463704 13.463704 0 0 1 1.232593 1.137777c1.137778 1.232593 2.465185 2.275556 3.697778 3.413334s2.37037 2.085926 3.602963 2.939259a39.537778 39.537778 0 0 0 4.361481 2.465185 32.426667 32.426667 0 0 0 3.982222 2.180741 39.632593 39.632593 0 0 0 5.688889 1.801481 20.385185 20.385185 0 0 0 3.413334 1.042963 43.425185 43.425185 0 0 0 7.869629 0.853334H1028.206839a33.28 33.28 0 0 0 5.214814 0l3.982223-0.663704a42.477037 42.477037 0 0 0 4.93037-1.517037l3.792593-1.327407c1.611852-0.758519 3.034074-1.611852 4.645925-2.56s2.180741-1.232593 3.223704-1.991112 2.74963-2.180741 4.077037-3.318518 2.085926-1.801481 3.034074-2.844444l1.232593-1.137778a605.961481 605.961481 0 0 0 151.703704-388.740741 27.022222 27.022222 0 0 0 0-2.74963c-0.379259-1.042963-0.379259-1.611852-0.37926-2.18074zM1052.479431 663.703704h63.051852A511.051852 511.051852 0 0 1 1005.072024 929.185185H209.101653a511.051852 511.051852 0 0 1-110.933333-265.481481H161.220172a47.407407 47.407407 0 0 0 0-94.814815h-64.853333A509.345185 509.345185 0 0 1 208.627579 285.297778l49.398519 49.398518a47.407407 47.407407 0 1 0 67.034074-67.034074L274.99795 217.41037a509.155556 509.155556 0 0 1 284.444444-120.32V161.185185a47.407407 47.407407 0 0 0 94.814815 0v-64.094815a509.155556 509.155556 0 0 1 284.444444 120.32l-50.251852 50.251852a47.407407 47.407407 0 1 0 67.034075 67.034074l49.588148-49.398518A509.345185 509.345185 0 0 1 1117.332764 568.888889H1052.479431a47.407407 47.407407 0 0 0 0 94.814815z"
    p-id="3102"></path>
  <path
    d="M698.156468 676.124444L606.849801 327.585185l-91.306666 348.823704A96.426667 96.426667 0 0 0 512.034987 701.62963a94.814815 94.814815 0 1 0 186.026666-25.505186z"
    p-id="3103" fill="currentColor"></path>
</svg>
